HIERARCHY
ROOT ui
{
	 OFFSET 0 0 0
	 CHANNELS 3 XPosition YPosition Z Position
	 EndSite
	 {
	 OFFSET 0 -1 0
	 }
}
ROOT li
{
	 OFFSET 0 0 0
	 CHANNELS 3 XPosition YPosition Z Position
	 EndSite
	 {
	 OFFSET 0 -1 0
	 }
}
ROOT ul
{
	 OFFSET 0 0 0
	 CHANNELS 3 XPosition YPosition Z Position
	 EndSite
	 {
	 OFFSET 0 -1 0
	 }
}
ROOT ll
{
	 OFFSET 0 0 0
	 CHANNELS 3 XPosition YPosition Z Position
	 EndSite
	 {
	 OFFSET 0 -1 0
	 }
}
ROOT tt
{
	 OFFSET 0 0 0
	 CHANNELS 3 XPosition YPosition Z Position
	 EndSite
	 {
	 OFFSET 0 -1 0
	 }
}
ROOT tb
{
	 OFFSET 0 0 0
	 CHANNELS 3 XPosition YPosition Z Position
	 EndSite
	 {
	 OFFSET 0 -1 0
	 }
}
ROOT td
{
	 OFFSET 0 0 0
	 CHANNELS 3 XPosition YPosition Z Position
	 EndSite
	 {
	 OFFSET 0 -1 0
	 }
}
ROOT v
{
	 OFFSET 0 0 0
	 CHANNELS 3 XPosition YPosition Z Position
	 EndSite
	 {
	 OFFSET 0 -1 0
	 }
}
ROOT bn
{
	 OFFSET 0 0 0
	 CHANNELS 3 XPosition YPosition Z Position
	 EndSite
	 {
	 OFFSET 0 -1 0
	 }
}
MOTION
Frames: 24
Frame Time: 0.002
0.024140249252319335	-5.866349935531617E-4	0		0.46752032470703125	-2.3803056640625	0		-0.9667974853515625	0.20368618774414063	0		-0.4540930480957031	-2.4347646484375	0		2.318978271484375	-0.4143735046386719	0		3.7674228515625	-0.28236611938476563	0		4.8809833984375	-0.040884876251220705	0		5.8006728515625	0.241254150390625	0		-0.3689645080566406	5.8817998046875	0		
0.024050275802612306	-4.724070131778717E-4	0		0.43624209594726565	-2.381899658203125	0		-0.969091796875	0.182892822265625	0		-0.4913435363769531	-2.433230712890625	0		2.339732666015625	-0.4266406555175781	0		3.77944775390625	-0.2696436767578125	0		4.8749638671875	-0.034053558349609374	0		5.79500634765625	0.2668330078125	0		-0.36764700317382815	5.880931640625	0		
0.019973300933837892	-0.0033259289264678956	0		0.46097027587890627	-2.38708740234375	0		-0.9132952880859375	0.1664819030761719	0		-0.4606404113769531	-2.440414306640625	0		2.34270849609375	-0.42173562622070315	0		3.77531982421875	-0.2757687072753906	0		4.88998828125	-0.02745802116394043	0		5.7962587890625	0.23511529541015624	0		-0.40230731201171877	5.877431640625	0		
-0.06105805587768555	-0.004376366138458252	0		0.4317838134765625	-2.3867197265625	0		-0.99346240234375	0.1514895477294922	0		-0.5317755126953125	-2.434535888671875	0		2.3604296875	-0.44400042724609373	0		3.775285400390625	-0.2759486083984375	0		4.89286572265625	-0.037750156402587894	0		5.8026728515625	0.23784356689453126	0		-0.38680014038085936	5.886396484375	0		
0.023993282318115233	-1.9481000304222106E-4	0		0.44355059814453124	-2.392796142578125	0		-0.992533447265625	0.14363307189941407	0		-0.5278946533203125	-2.429458251953125	0		2.332391845703125	-0.44479019165039063	0		3.812128173828125	-0.2895314636230469	0		4.9069296875	-0.03216975784301758	0		5.7948525390625	0.24438310241699218	0		-0.3561617431640625	5.90618603515625	0		
-0.049937942504882815	0.005665403842926025	0		0.4543287658691406	-2.398875244140625	0		-0.9965549926757813	0.13981515502929687	0		-0.5240115356445313	-2.42539501953125	0		2.358455810546875	-0.43716351318359375	0		3.777463623046875	-0.2573564453125	0		4.9020244140625	-0.0243915958404541	0		5.79346484375	0.25248490905761717	0		-0.32167404174804687	5.911916015625	0		
0.024016914367675782	-7.263299822807312E-5	0		0.48223248291015625	-2.39415185546875	0		-0.9356658325195313	0.12728130340576171	0		-0.524161865234375	-2.425303466796875	0		2.351342529296875	-0.44618994140625	0		3.781167724609375	-0.28459576416015625	0		4.9169697265625	-0.030826339721679686	0		5.7741943359375	0.24895091247558593	0		-0.33637091064453123	5.90215576171875	0		
-0.05698810577392578	-0.0011535569429397582	0		0.42811740112304686	-2.391554931640625	0		-0.9419166259765624	0.10244924926757812	0		-0.48832757568359375	-2.427618408203125	0		2.36627099609375	-0.45145938110351563	0		3.788248046875	-0.2768699035644531	0		4.921892578125	-0.03914988327026367	0		5.78261572265625	0.21702653503417968	0		-0.35109222412109375	5.89238232421875	0		
0.020008760452270506	-0.0029627649784088133	0		0.47075711059570313	-2.413020751953125	0		-0.9499849243164062	0.09461951446533202	0		-0.5074464416503907	-2.426355712890625	0		2.3591044921875	-0.4654949645996094	0		3.82014404296875	-0.2864149780273437	0		4.92190283203125	-0.039413494110107423	0		5.774794921875	0.22187916564941407	0		-0.35073193359375	5.89243017578125	0		
-0.05695735549926758	-0.0011091560125350952	0		0.44570101928710937	-2.40776171875	0		-1.0101549682617188	0.077340576171875	0		-0.4984614562988281	-2.417416259765625	0		2.3749873046875	-0.4757865905761719	0		3.804410888671875	-0.26243722534179686	0		4.930896484375	-0.041767879486083986	0		5.78124365234375	0.22637530517578125	0		-0.32116558837890624	5.91314111328125	0		
0.01914968490600586	0.0050512380599975586	0		0.46367123413085937	-2.402987548828125	0		-0.9311763305664063	0.07151554107666015	0		-0.5284447631835938	-2.408067626953125	0		2.356010498046875	-0.4746997375488281	0		3.802256591796875	-0.27860675048828126	0		4.926017578125	-0.03396121597290039	0		5.76561962890625	0.23667196655273437	0		-0.33496044921875	5.90230615234375	0		
0.020125877380371093	-0.002982515096664429	0		0.4435426025390625	-2.410808837890625	0		-0.9432295532226562	0.06066751480102539	0		-0.47958892822265625	-2.417607666015625	0		2.370998046875	-0.47999139404296876	0		3.822385009765625	-0.2720180969238281	0		4.9320029296875	-0.041266521453857424	0		5.7691796875	0.2257188720703125	0		-0.3828208312988281	5.885830078125	0		
0.020233478546142578	-0.0030231308937072755	0		0.4575775451660156	-2.409021240234375	0		-0.9352752075195313	0.046576629638671874	0		-0.5603820190429688	-2.3997314453125	0		2.357832763671875	-0.5029781494140625	0		3.811338623046875	-0.28508428955078124	0		4.93702001953125	-0.04955376434326172	0		5.76143017578125	0.2306611785888672	0		-0.3494078369140625	5.89243896484375	0		
0.020394073486328126	-0.0030814950466156008	0		0.43855746459960937	-2.417882568359375	0		-0.9401571044921875	0.042606597900390626	0		-0.4883740539550781	-2.406570556640625	0		2.366764404296875	-0.52221484375	0		3.8025234375	-0.28217153930664063	0		4.9371787109375	-0.0497791862487793	0		5.75791064453125	0.21647999572753907	0		-0.38212277221679686	5.8857607421875	0		
0.02061229705810547	-0.003157336950302124	0		0.4407394104003906	-2.414992919921875	0		-0.9950902709960937	0.029172725677490234	0		-0.5322781372070312	-2.411140869140625	0		2.378799560546875	-0.5374912719726562	0		3.8206767578125	-0.2875568542480469	0		4.936384765625	-0.05098553466796875	0		5.75806298828125	0.21606288146972658	0		-0.31647119140625	5.9089697265625	0		
0.027965354919433593	0.0036716129779815676	0		0.44400247192382813	-2.41112890625	0		-0.911841796875	0.026176713943481447	0		-0.5358804321289062	-2.395176513671875	0		2.376006591796875	-0.542605224609375	0		3.81414697265625	-0.26966146850585937	0		4.94073681640625	-0.04423865127563477	0		5.765404296875	0.21893624877929688	0		-0.35208816528320314	5.9062880859375	0		
0.016270002365112304	0.001698254942893982	0		0.43920703125	-2.41818798828125	0		-1.0035765380859376	0.021116163253784178	0		-0.5376198120117187	-2.39725146484375	0		2.362122314453125	-0.56059765625	0		3.775123779296875	-0.30039923095703125	0		4.93392822265625	-0.05635620498657227	0		5.75068994140625	0.22589649963378905	0		-0.35165512084960937	5.90618701171875	0		
0.025612356185913086	-5.243960022926331E-4	0		0.46246206665039064	-2.425572509765625	0		-0.9273165893554688	0.011155890464782716	0		-0.5372846069335937	-2.397366455078125	0		2.349291015625	-0.577602294921875	0		3.802472412109375	-0.30187091064453125	0		4.9312255859375	-0.06250590515136718	0		5.7515263671875	0.19613356018066405	0		-0.352204345703125	5.9070810546875	0		
-0.059960262298583984	0.003304202079772949	0		0.4358690185546875	-2.422408447265625	0		-1.0049569091796875	0.0089017333984375	0		-0.5389463500976562	-2.4004755859375	0		2.34543994140625	-0.598707763671875	0		3.8077685546875	-0.3100881652832031	0		4.9265244140625	-0.07061881256103515	0		5.73682470703125	0.19623805236816405	0		-0.36588650512695314	5.89710546875	0		
0.022362131118774414	-0.0037637560367584227	0		0.43423904418945314	-2.42453515625	0		-0.9246343994140624	0.0018571740388870239	0		-0.5215662231445313	-2.401814453125	0		2.33264453125	-0.6157120971679687	0		3.79022021484375	-0.3050392761230469	0		4.93691845703125	-0.07088477325439453	0		5.744927734375	0.19056744384765625	0		-0.31632046508789063	5.91140673828125	0		
-0.051200366973876955	9.038699865341187E-4	0		0.4386839599609375	-2.42073974609375	0		-1.0001295166015625	0.012542030334472657	0		-0.521166015625	-2.401978759765625	0		2.31983447265625	-0.6337151489257813	0		3.765510498046875	-0.31390097045898435	0		4.9273076171875	-0.07090936279296875	0		5.741021484375	0.21121307373046874	0		-0.31695123291015626	5.91225439453125	0		
0.018178476333618163	9.56151008605957E-4	0		0.4599811706542969	-2.430143798828125	0		-0.9179307861328125	-0.0035609779357910157	0		-0.5228004150390625	-2.405136474609375	0		2.314001220703125	-0.652794921875	0		3.801816650390625	-0.32043560791015624	0		4.93545556640625	-0.091116455078125	0		5.74128857421875	0.2110232696533203	0		-0.3507110595703125	5.90645751953125	0		
-0.050477603912353515	5.41496992111206E-4	0		0.43137612915039064	-2.429998046875	0		-0.9307021484375	-0.01461746597290039	0		-0.5274521484375	-2.40927587890625	0		2.341082275390625	-0.6782415161132812	0		3.75606396484375	-0.3300409545898437	0		4.92274169921875	-0.09707127380371093	0		5.7379033203125	0.1954010009765625	0		-0.33052032470703124	5.90104150390625	0		
0.016723993301391602	-0.01140478801727295	0		0.45468185424804686	-2.4374423828125	0		-0.9344176635742187	-0.01879254150390625	0		-0.5291006469726562	-2.412464111328125	0		2.3221376953125	-0.70417138671875	0		3.7533447265625	-0.3351176452636719	0		4.919005859375	-0.1031094741821289	0		5.738140625	0.19528948974609375	0		-0.3162077941894531	5.9116787109375	0		
